<?xml version="1.0" encoding="UTF-8"?><svg id="Ebene_1" xmlns="http://www.w3.org/2000/svg" viewBox="0 0 472.77 161"><path d="M3.07,74.99c.39-1.78,1-3.28,1.83-4.48.83-1.21,1.89-2.11,3.19-2.72,1.29-.61,2.84-.91,4.63-.91,1.57,0,3.02.32,4.35.96s2.42,1.71,3.27,3.2c.85,1.49,1.32,3.51,1.41,6.06h2.46c-.09-3.03-.66-5.47-1.73-7.32-1.06-1.85-2.45-3.19-4.15-4.03-1.7-.84-3.58-1.26-5.61-1.26s-3.88.34-5.46,1.03c-1.58.69-2.91,1.72-3.98,3.1-1.07,1.38-1.89,3.12-2.44,5.2-.55,2.08-.83,4.52-.83,7.3v3.98c0,2.79.28,5.22.83,7.3.55,2.08,1.37,3.81,2.44,5.2,1.07,1.38,2.4,2.43,3.98,3.14,1.58.71,3.4,1.06,5.46,1.06s3.87-.42,5.58-1.26c1.7-.84,3.09-2.12,4.15-3.85s1.65-3.92,1.76-6.57h-2.46c-.09,2.43-.58,4.33-1.46,5.68-.89,1.35-2,2.29-3.34,2.81-1.34.52-2.75.78-4.23.78-1.79,0-3.34-.3-4.63-.91-1.29-.61-2.36-1.52-3.19-2.72-.83-1.21-1.44-2.71-1.83-4.5-.39-1.79-.58-3.84-.58-6.14v-3.98c0-2.3.19-4.34.58-6.13Z"/><rect x="32.97" y="50.07" width="2.52" height="51"/><path d="M47.91,52.06c-.58,0-1.05.21-1.43.61-.38.41-.56.92-.56,1.54s.19,1.1.56,1.51c.38.41.85.61,1.43.61s1.07-.2,1.43-.61c.35-.41.53-.91.53-1.51s-.18-1.13-.53-1.54c-.35-.41-.83-.61-1.43-.61Z"/><rect x="46.65" y="65.15" width="2.52" height="35.93"/><path d="M99.76,67.55c-.85-1.05-1.89-1.83-3.1-2.32-1.22-.5-2.61-.75-4.18-.75-1.75,0-3.32.33-4.71,1s-2.61,1.57-3.64,2.72c-1,1.12-1.8,2.39-2.4,3.81-.05-.22-.09-.44-.15-.65-.45-1.62-1.11-2.93-1.96-3.93-.85-1.01-1.88-1.75-3.07-2.22-1.2-.48-2.55-.71-4.05-.71-1.75,0-3.33.38-4.75,1.15-1.42.76-2.63,1.82-3.64,3.15-.73.97-1.34,2.03-1.85,3.19l-.06-6.83h-2.52v35.93h2.59v-23.88c.07-.3.14-.61.22-.92.39-1.53.97-3,1.76-4.43.79-1.43,1.81-2.61,3.07-3.55,1.26-.94,2.79-1.41,4.58-1.41,1.55,0,2.91.3,4.08.91,1.17.61,2.1,1.66,2.77,3.15.67,1.49,1.01,3.58,1.01,6.26v23.87h2.49v-23.87s0-.09,0-.14c.09-.9.32-1.9.7-2.99.42-1.2,1.03-2.33,1.83-3.42s1.8-1.99,3-2.71c1.21-.72,2.62-1.08,4.23-1.08,1.53-.02,2.88.28,4.07.9,1.18.62,2.1,1.72,2.76,3.29.65,1.57.98,3.8.98,6.67v23.34h2.56v-23.34c0-2.37-.22-4.39-.66-6.08-.44-1.68-1.09-3.05-1.94-4.1Z"/><path d="M133.71,93.73v-18.73c0-2.57-.47-4.62-1.41-6.14-.94-1.53-2.22-2.64-3.85-3.34s-3.49-1.05-5.59-1.05c-1.71,0-3.26.27-4.67.81-1.41.54-2.61,1.29-3.62,2.26-1.01.96-1.79,2.08-2.34,3.35-.55,1.27-.83,2.63-.83,4.07l2.46.07c0-1.66.39-3.1,1.16-4.32.77-1.22,1.83-2.16,3.15-2.84,1.33-.67,2.84-1.01,4.55-1.01,1.84,0,3.39.28,4.65.83s2.22,1.42,2.87,2.61c.65,1.18.98,2.73.98,4.63v5.74h-7.21c-2.21,0-4.16.27-5.83.81-1.67.54-3.06,1.32-4.17,2.32-1.11,1.01-1.95,2.19-2.52,3.55-.58,1.36-.86,2.85-.86,4.47,0,2.21.39,4.05,1.18,5.51.79,1.46,1.9,2.57,3.34,3.32,1.44.75,3.12,1.13,5.05,1.13,1.79,0,3.39-.29,4.78-.86s2.61-1.33,3.64-2.26,1.88-1.95,2.54-3.07c.03-.05.06-.11.09-.16.02.82.06,1.65.14,2.52.11,1.23.27,2.26.46,3.1h2.72v-.33c-.27-.8-.48-1.84-.63-3.14-.16-1.29-.23-2.58-.23-3.87ZM131.22,91.95c-.43,1.11-1,2.13-1.71,3.06-1.03,1.34-2.31,2.39-3.85,3.15-1.54.76-3.3,1.15-5.3,1.15-1.44,0-2.71-.28-3.82-.83-1.11-.55-1.96-1.38-2.56-2.47s-.9-2.48-.9-4.17c0-1.33.23-2.53.68-3.6.45-1.07,1.14-2,2.06-2.79.92-.79,2.08-1.39,3.49-1.83,1.41-.43,3.06-.65,4.96-.65h6.94v8.98Z"/><path d="M154.49,99.21c-.44.07-.95.1-1.53.1-.73,0-1.42-.17-2.06-.51-.64-.34-1.16-1.01-1.54-1.99-.39-.98-.58-2.45-.58-4.4v-24.9h6.54v-2.36h-6.54v-9.5h-2.56v9.5h-5.58v2.36h5.58v24.9c0,2.39.27,4.27.81,5.63.54,1.36,1.29,2.32,2.26,2.87s2.08.83,3.34.83c.55,0,1.16-.03,1.83-.1s1.2-.18,1.59-.33l-.2-2.32c-.46.09-.92.17-1.36.23Z"/><path d="M183.4,68.07c-1.03-1.22-2.27-2.12-3.72-2.71-1.45-.59-3.08-.88-4.9-.88s-3.37.34-4.91,1.01c-1.55.68-2.92,1.69-4.12,3.05s-2.14,3.09-2.82,5.2c-.69,2.1-1.03,4.58-1.03,7.44v4.08c0,2.79.34,5.22,1.01,7.3.67,2.08,1.62,3.8,2.84,5.15,1.22,1.35,2.64,2.37,4.28,3.05,1.64.69,3.42,1.03,5.35,1.03,1.73,0,3.23-.2,4.5-.6,1.27-.4,2.38-.95,3.34-1.64.95-.7,1.76-1.48,2.42-2.34l-1.36-1.56c-1.17,1.37-2.5,2.33-3.97,2.89-1.47.55-3.08.83-4.83.83-1.59,0-3.07-.29-4.42-.88-1.35-.59-2.52-1.47-3.52-2.64s-1.77-2.64-2.32-4.4c-.55-1.76-.83-3.82-.83-6.19v-2.82h22.18v-2.86c0-2.66-.27-4.94-.81-6.84-.54-1.9-1.33-3.46-2.36-4.68ZM184.05,80.05h-19.63c.07-1.92.3-3.65.72-5.16.5-1.8,1.21-3.29,2.14-4.47s2.03-2.06,3.29-2.66,2.67-.9,4.22-.9c1.95,0,3.61.46,5,1.39,1.38.93,2.44,2.3,3.17,4.12s1.1,4.05,1.1,6.71v.96Z"/><polygon points="261.66 6.97 259 6.97 250.06 36.05 241.04 6.97 238.38 6.97 235.1 6.97 232.87 6.97 232.87 46.07 239.24 46.07 239.24 31.89 238.78 18.5 247.56 46.07 252.48 46.07 261.3 17.39 260.8 31.89 260.8 46.07 267.2 46.07 267.2 6.97 264.51 6.97 261.66 6.97"/><polygon points="278.56 46.07 295.98 46.07 295.98 43.2 278.56 43.2 278.56 27.35 293.7 27.35 293.7 24.48 278.56 24.48 278.56 9.84 295.85 9.84 295.85 6.97 278.56 6.97 277.72 6.97 275.49 6.97 275.49 46.07 277.72 46.07 278.56 46.07"/><path d="M320.64,35.14l3.36,10.93h3.17l-12.43-39.1h-2.85l-12.43,39.1h3.17l3.35-10.93h14.67ZM313.29,11.22l6.46,21.05h-12.91l6.45-21.05Z"/><path d="M347.56,42.82c-1.23.61-2.68.91-4.36.91-1.11,0-2.21-.16-3.3-.47s-2.08-.81-2.97-1.5c-.89-.69-1.6-1.6-2.13-2.74s-.81-2.52-.81-4.15h-3.09c0,2.06.36,3.83,1.07,5.32.72,1.49,1.67,2.7,2.87,3.65,1.2.95,2.52,1.65,3.97,2.1s2.91.67,4.38.67c1.65,0,3.16-.23,4.54-.7s2.57-1.14,3.58-2.03c1.01-.89,1.79-1.96,2.35-3.22.55-1.26.83-2.69.83-4.28s-.23-2.96-.7-4.16c-.47-1.2-1.16-2.26-2.08-3.17s-2.06-1.72-3.41-2.42c-1.35-.7-2.91-1.33-4.69-1.88-1.59-.52-2.94-1.07-4.04-1.65-1.1-.58-1.99-1.2-2.66-1.87-.67-.66-1.15-1.39-1.45-2.18-.29-.79-.44-1.65-.44-2.58,0-1.31.29-2.5.89-3.58s1.48-1.95,2.67-2.61c1.19-.65,2.66-.98,4.42-.98s3.25.38,4.49,1.14c1.24.76,2.17,1.8,2.81,3.13.64,1.33.95,2.84.95,4.54h3.03c0-2.17-.45-4.13-1.36-5.9-.9-1.76-2.2-3.17-3.89-4.22-1.69-1.05-3.7-1.57-6.03-1.57-1.63,0-3.12.24-4.46.73-1.34.48-2.51,1.17-3.5,2.07-.99.9-1.76,1.96-2.3,3.21-.54,1.25-.81,2.62-.81,4.12s.25,2.89.74,4.04c.49,1.16,1.21,2.16,2.15,3.02.94.86,2.07,1.62,3.38,2.28,1.32.66,2.8,1.27,4.45,1.83,1.68.57,3.09,1.15,4.22,1.73s2.02,1.21,2.69,1.88c.66.67,1.14,1.42,1.42,2.24.29.82.43,1.77.43,2.85,0,1.47-.34,2.75-1.01,3.84-.67,1.09-1.62,1.94-2.85,2.55Z"/><path d="M381.12,34.52c0,2.29-.37,4.11-1.1,5.45-.73,1.34-1.74,2.31-3.02,2.9-1.28.59-2.76.89-4.45.89s-3.12-.29-4.4-.89c-1.29-.59-2.3-1.56-3.03-2.9-.73-1.34-1.1-3.16-1.1-5.45V6.97h-3.06v27.55c0,2.94.51,5.29,1.53,7.06,1.02,1.77,2.41,3.06,4.16,3.85,1.75.8,3.72,1.19,5.91,1.19s4.08-.4,5.84-1.19c1.76-.8,3.17-2.08,4.22-3.85,1.05-1.77,1.57-4.13,1.57-7.06V6.97h-3.06v27.55Z"/><path d="M411.06,27.27c1.13-1,2.02-2.26,2.67-3.76.65-1.5.98-3.18.98-5.02,0-2.49-.46-4.59-1.37-6.3-.91-1.71-2.21-3.01-3.88-3.89-1.67-.89-3.66-1.33-5.95-1.33h-10.72v39.1h3.06v-16.27h9.18l7.82,16.27h3.25v-.35l-8.14-16.66c1.16-.4,2.19-.99,3.09-1.79ZM404.02,26.92h-8.16V9.84h7.65c1.77,0,3.26.35,4.47,1.05,1.21.7,2.12,1.7,2.74,2.99.62,1.3.93,2.83.93,4.61,0,1.47-.28,2.85-.85,4.14-.56,1.29-1.41,2.33-2.54,3.12-1.13.79-2.54,1.18-4.24,1.18Z"/><polygon points="426.15 27.35 441.3 27.35 441.3 24.48 426.15 24.48 426.15 9.84 443.45 9.84 443.45 6.97 426.15 6.97 425.32 6.97 423.09 6.97 423.09 46.07 425.32 46.07 426.15 46.07 443.58 46.07 443.58 43.2 426.15 43.2 426.15 27.35"/><path d="M472.12,31.65c-.44-1.25-1.1-2.38-1.99-3.38-.89-1-2.01-1.9-3.37-2.69-1.36-.79-2.95-1.52-4.78-2.2-1.07-.39-2.02-.81-2.85-1.24s-1.52-.89-2.09-1.37-1.01-1.01-1.32-1.58c-.3-.57-.46-1.23-.46-1.96,0-1.02.19-1.94.56-2.75.38-.81.95-1.46,1.73-1.93.78-.47,1.76-.71,2.94-.71,1.32,0,2.4.28,3.22.85.82.56,1.43,1.34,1.81,2.32s.58,2.11.58,3.38h6.5c0-2.2-.48-4.21-1.44-6.02-.96-1.81-2.34-3.25-4.14-4.32-1.8-1.07-3.95-1.61-6.46-1.61-1.77,0-3.38.26-4.82.79-1.44.53-2.69,1.27-3.75,2.23-1.06.96-1.87,2.09-2.43,3.41-.56,1.32-.85,2.77-.85,4.36s.29,3.02.86,4.23c.57,1.21,1.37,2.27,2.38,3.2,1.01.92,2.18,1.73,3.52,2.42,1.33.69,2.77,1.33,4.31,1.92,1.32.54,2.42,1.06,3.28,1.56.86.5,1.52,1.01,1.97,1.53.46.52.77,1.1.94,1.73.17.64.26,1.36.26,2.16,0,1.02-.18,1.93-.55,2.73s-.94,1.41-1.73,1.85c-.79.44-1.78.66-2.98.66-.99,0-1.88-.13-2.67-.4-.8-.27-1.49-.68-2.07-1.22-.58-.55-1.02-1.27-1.32-2.16-.29-.89-.44-1.97-.44-3.22h-6.53c0,2.09.35,3.92,1.05,5.46s1.66,2.84,2.87,3.88c1.22,1.04,2.6,1.81,4.15,2.31s3.16.75,4.85.75c1.81,0,3.45-.25,4.91-.77,1.47-.51,2.72-1.24,3.76-2.17,1.04-.94,1.83-2.06,2.39-3.37.55-1.31.83-2.77.83-4.38s-.22-3.02-.66-4.27Z"/><polygon points="261.66 114.97 259 114.97 250.06 144.05 241.04 114.97 238.38 114.97 235.1 114.97 232.87 114.97 232.87 154.07 239.24 154.07 239.24 139.89 238.78 126.5 247.56 154.07 252.48 154.07 261.3 125.39 260.8 139.89 260.8 154.07 267.2 154.07 267.2 114.97 264.51 114.97 261.66 114.97"/><path d="M295.17,136.27c-.89-1-2.01-1.9-3.37-2.69-1.36-.79-2.95-1.52-4.78-2.2-1.07-.39-2.02-.81-2.85-1.24-.82-.43-1.52-.89-2.09-1.37-.57-.48-1.01-1.01-1.32-1.58-.3-.57-.46-1.23-.46-1.96,0-1.02.19-1.94.56-2.75.38-.81.95-1.46,1.73-1.93.78-.47,1.76-.71,2.94-.71,1.33,0,2.4.28,3.22.85.82.56,1.43,1.34,1.81,2.32.38.98.58,2.11.58,3.38h6.5c0-2.2-.48-4.21-1.44-6.02-.96-1.81-2.34-3.25-4.14-4.32-1.8-1.07-3.95-1.61-6.46-1.61-1.77,0-3.38.26-4.82.79-1.44.53-2.69,1.27-3.75,2.23s-1.87,2.09-2.43,3.41c-.56,1.32-.85,2.77-.85,4.36s.29,3.02.86,4.23c.57,1.21,1.37,2.27,2.38,3.2s2.18,1.73,3.52,2.42c1.33.69,2.77,1.33,4.31,1.92,1.33.54,2.42,1.06,3.28,1.56.86.5,1.52,1.01,1.97,1.53.46.52.77,1.1.94,1.73s.25,1.36.25,2.16c0,1.02-.18,1.93-.55,2.73-.37.8-.95,1.41-1.73,1.85-.79.44-1.78.66-2.98.66-.98,0-1.88-.13-2.67-.4s-1.49-.68-2.07-1.22c-.58-.55-1.02-1.27-1.32-2.16-.29-.89-.44-1.97-.44-3.22h-6.53c0,2.09.35,3.92,1.05,5.46s1.66,2.84,2.87,3.88c1.22,1.04,2.6,1.81,4.15,2.31,1.55.5,3.16.75,4.85.75,1.81,0,3.45-.25,4.92-.77,1.47-.51,2.72-1.24,3.76-2.17,1.04-.94,1.83-2.06,2.39-3.37.55-1.31.83-2.77.83-4.38s-.22-3.02-.66-4.27c-.44-1.25-1.1-2.38-1.99-3.38Z"/><polygon points="261.66 61.97 259 61.97 250.06 91.05 241.04 61.97 238.38 61.97 235.1 61.97 232.87 61.97 232.87 101.07 239.24 101.07 239.24 86.89 238.78 73.5 247.56 101.07 252.48 101.07 261.3 72.39 260.8 86.89 260.8 101.07 267.2 101.07 267.2 61.97 264.51 61.97 261.66 61.97"/><path d="M286.69,61.97h-2.18l-12.43,39.1h3.17l3.35-10.93h14.67l3.36,10.93h3.17l-12.43-39.1h-.67ZM279.48,87.27l6.45-21.05,6.46,21.05h-12.91Z"/><polygon points="313.84 61.97 302.75 61.97 302.75 64.84 313.84 64.84 313.84 101.07 316.88 101.07 316.88 64.84 328.02 64.84 328.02 61.97 316.88 61.97 313.84 61.97"/><polygon points="342.5 61.97 331.41 61.97 331.41 64.84 342.5 64.84 342.5 101.07 345.53 101.07 345.53 64.84 356.68 64.84 356.68 61.97 345.53 61.97 342.5 61.97"/><polygon points="366.05 82.35 381.2 82.35 381.2 79.48 366.05 79.48 366.05 64.84 383.35 64.84 383.35 61.97 366.05 61.97 365.22 61.97 362.99 61.97 362.99 101.07 365.22 101.07 366.05 101.07 383.48 101.07 383.48 98.2 366.05 98.2 366.05 82.35"/><path d="M408.56,82.27c1.13-1,2.02-2.26,2.67-3.76s.98-3.18.98-5.02c0-2.49-.46-4.59-1.37-6.3-.91-1.71-2.21-3.01-3.88-3.89-1.67-.89-3.66-1.33-5.95-1.33h-10.71v39.1h3.06v-16.27h9.18l7.82,16.27h3.25v-.35l-8.14-16.66c1.16-.4,2.19-.99,3.09-1.79ZM401.53,81.92h-8.16v-17.08h7.65c1.77,0,3.26.35,4.47,1.05,1.21.7,2.12,1.7,2.74,2.99.62,1.3.93,2.83.93,4.61,0,1.47-.28,2.85-.85,4.14-.56,1.29-1.41,2.33-2.54,3.12-1.13.79-2.54,1.18-4.24,1.18Z"/><path d="M440.27,83.27c-.89-1-2.01-1.9-3.37-2.69-1.36-.79-2.95-1.52-4.78-2.2-1.07-.39-2.02-.81-2.85-1.24s-1.52-.89-2.09-1.37-1.01-1.01-1.32-1.58c-.3-.57-.46-1.23-.46-1.96,0-1.02.19-1.94.56-2.75.38-.81.95-1.46,1.73-1.93.78-.47,1.76-.71,2.94-.71,1.32,0,2.4.28,3.22.85.82.56,1.43,1.34,1.81,2.32s.58,2.11.58,3.38h6.5c0-2.2-.48-4.21-1.44-6.02-.96-1.81-2.34-3.25-4.14-4.32-1.8-1.07-3.95-1.61-6.46-1.61-1.77,0-3.38.26-4.82.79-1.44.53-2.69,1.27-3.75,2.23-1.06.96-1.87,2.09-2.43,3.41-.56,1.32-.85,2.77-.85,4.36s.29,3.02.86,4.23c.57,1.21,1.37,2.27,2.38,3.2,1.01.92,2.18,1.73,3.52,2.42,1.33.69,2.77,1.33,4.31,1.92,1.32.54,2.42,1.06,3.28,1.56.86.5,1.52,1.01,1.97,1.53.46.52.77,1.1.94,1.73.17.64.26,1.36.26,2.16,0,1.02-.18,1.93-.55,2.73s-.94,1.41-1.73,1.85c-.79.44-1.78.66-2.98.66-.99,0-1.88-.13-2.67-.4-.8-.27-1.49-.68-2.07-1.22-.58-.55-1.02-1.27-1.32-2.16-.29-.89-.44-1.97-.44-3.22h-6.53c0,2.09.35,3.92,1.05,5.46s1.66,2.84,2.87,3.88c1.22,1.04,2.6,1.81,4.15,2.31s3.16.75,4.85.75c1.81,0,3.45-.25,4.91-.77,1.47-.51,2.72-1.24,3.76-2.17,1.04-.94,1.83-2.06,2.39-3.37.55-1.31.83-2.77.83-4.38s-.22-3.02-.66-4.27c-.44-1.25-1.1-2.38-1.99-3.38Z"/><polygon points="201.29 8.8 202.75 10.16 208.47 4.01 208.47 161 210.47 161 210.47 4.01 216.18 10.16 217.65 8.8 209.47 0 201.29 8.8"/></svg>